<svg id="my-svg" width="100%" xmlns="http://www.w3.org/2000/svg" xmlns:xlink="http://www.w3.org/1999/xlink" style="max-width: 4700px; background-color: white;" viewBox="0 -25 4700 540" preserveAspectRatio="xMinYMin meet" height="565" role="graphics-document document" aria-roledescription="journey"><style>#my-svg{font-family:"trebuchet ms",verdana,arial,sans-serif;font-size:16px;fill:#000000;}@keyframes edge-animation-frame{from{stroke-dashoffset:0;}}@keyframes dash{to{stroke-dashoffset:0;}}#my-svg .edge-animation-slow{stroke-dasharray:9,5!important;stroke-dashoffset:900;animation:dash 50s linear infinite;stroke-linecap:round;}#my-svg .edge-animation-fast{stroke-dasharray:9,5!important;stroke-dashoffset:900;animation:dash 20s linear infinite;stroke-linecap:round;}#my-svg .error-icon{fill:#552222;}#my-svg .error-text{fill:#552222;stroke:#552222;}#my-svg .edge-thickness-normal{stroke-width:1px;}#my-svg .edge-thickness-thick{stroke-width:3.5px;}#my-svg .edge-pattern-solid{stroke-dasharray:0;}#my-svg .edge-thickness-invisible{stroke-width:0;fill:none;}#my-svg .edge-pattern-dashed{stroke-dasharray:3;}#my-svg .edge-pattern-dotted{stroke-dasharray:2;}#my-svg .marker{fill:#000000;stroke:#000000;}#my-svg .marker.cross{stroke:#000000;}#my-svg svg{font-family:"trebuchet ms",verdana,arial,sans-serif;font-size:16px;}#my-svg p{margin:0;}#my-svg .label{font-family:"trebuchet ms",verdana,arial,sans-serif;color:#000000;}#my-svg .mouth{stroke:#666;}#my-svg line{stroke:#000000;}#my-svg .legend{fill:#000000;font-family:"trebuchet ms",verdana,arial,sans-serif;}#my-svg .label text{fill:#333;}#my-svg .label{color:#000000;}#my-svg .face{fill:#FFF8DC;stroke:#999;}#my-svg .node rect,#my-svg .node circle,#my-svg .node ellipse,#my-svg .node polygon,#my-svg .node path{fill:#cde498;stroke:#13540c;stroke-width:1px;}#my-svg .node .label{text-align:center;}#my-svg .node.clickable{cursor:pointer;}#my-svg .arrowheadPath{fill:green;}#my-svg .edgePath .path{stroke:#000000;stroke-width:1.5px;}#my-svg .flowchart-link{stroke:#000000;fill:none;}#my-svg .edgeLabel{background-color:#e8e8e8;text-align:center;}#my-svg .edgeLabel rect{opacity:0.5;}#my-svg .cluster text{fill:#333;}#my-svg div.mermaidTooltip{position:absolute;text-align:center;max-width:200px;padding:2px;font-family:"trebuchet ms",verdana,arial,sans-serif;font-size:12px;background:hsl(78.1578947368, 58.4615384615%, 84.5098039216%);border:1px solid #6eaa49;border-radius:2px;pointer-events:none;z-index:100;}#my-svg .task-type-0,#my-svg .section-type-0{fill:#cde498;}#my-svg .task-type-1,#my-svg .section-type-1{fill:#cdffb2;}#my-svg .task-type-2,#my-svg .section-type-2{fill:hsl(142.1578947368, 58.4615384615%, 74.5098039216%);}#my-svg .task-type-3,#my-svg .section-type-3{fill:hsl(162.961038961, 100%, 84.9019607843%);}#my-svg .task-type-4,#my-svg .section-type-4{fill:hsl(14.1578947368, 58.4615384615%, 74.5098039216%);}#my-svg .task-type-5,#my-svg .section-type-5{fill:hsl(34.961038961, 100%, 84.9019607843%);}#my-svg .task-type-6,#my-svg .section-type-6{fill:hsl(206.1578947368, 58.4615384615%, 74.5098039216%);}#my-svg .task-type-7,#my-svg .section-type-7{fill:hsl(226.961038961, 100%, 84.9019607843%);}#my-svg .label-icon{display:inline-block;height:1em;overflow:visible;vertical-align:-0.125em;}#my-svg .node .label-icon path{fill:currentColor;stroke:revert;stroke-width:revert;}#my-svg .node .neo-node{stroke:#13540c;}#my-svg [data-look="neo"].node rect,#my-svg [data-look="neo"].cluster rect,#my-svg [data-look="neo"].node polygon{stroke:url(#my-svg-gradient);filter:drop-shadow( 1px 2px 2px rgba(185,185,185,0.5));}#my-svg [data-look="neo"].node path{stroke:url(#my-svg-gradient);stroke-width:1px;}#my-svg [data-look="neo"].node .outer-path{filter:drop-shadow( 1px 2px 2px rgba(185,185,185,0.5));}#my-svg [data-look="neo"].node .neo-line path{stroke:#13540c;filter:none;}#my-svg [data-look="neo"].node circle{stroke:url(#my-svg-gradient);filter:drop-shadow( 1px 2px 2px rgba(185,185,185,0.5));}#my-svg [data-look="neo"].node circle .state-start{fill:#000000;}#my-svg [data-look="neo"].icon-shape .icon{fill:url(#my-svg-gradient);filter:drop-shadow( 1px 2px 2px rgba(185,185,185,0.5));}#my-svg [data-look="neo"].icon-shape .icon-neo path{stroke:url(#my-svg-gradient);filter:drop-shadow( 1px 2px 2px rgba(185,185,185,0.5));}#my-svg :root{--mermaid-font-family:"trebuchet ms",verdana,arial,sans-serif;}</style><g/><defs><marker id="my-svg-arrowhead" refX="5" refY="2" markerWidth="6" markerHeight="4" orient="auto"><path d="M 0,0 V 4 L6,2 Z"/></marker></defs><circle cx="20" cy="60" class="actor-0" fill="#8FBC8F" stroke="#000" r="7"/><text x="40" y="67" class="legend"><tspan x="50">User</tspan></text><g><rect x="150" y="50" fill="#191970" stroke="#666" width="550" height="50" rx="3" ry="3" class="journey-section section-type-0"/><switch><foreignObject x="150" y="50" width="550" height="50"><div class="journey-section section-type-0" xmlns="http://www.w3.org/1999/xhtml" style="display: table; height: 100%; width: 100%;"><div class="label" style="display: table-cell; text-align: center; vertical-align: middle;">Arrive</div></div></foreignObject><text x="425" y="75" dominant-baseline="central" alignment-baseline="central" class="journey-section section-type-0" style="text-anchor: middle; font-size: 14px; font-family: &quot;Open Sans&quot;, sans-serif;"><tspan x="425" dy="0">Arrive</tspan></text></switch></g><g><line id="my-svg-task0" x1="225" y1="110" x2="225" y2="450" class="task-line" stroke-width="1px" stroke-dasharray="4 2" stroke="#666"/><circle cx="225" cy="300" class="face" r="15" stroke-width="2" overflow="visible"/><g><circle cx="220" cy="295" r="1.5" stroke-width="2" fill="#666" stroke="#666"/><circle cx="230" cy="295" r="1.5" stroke-width="2" fill="#666" stroke="#666"/><path class="mouth" d="M7.5,0A7.5,7.5,0,1,1,-7.5,0L-6.818,0A6.818,6.818,0,1,0,6.818,0Z" transform="translate(225,302)"/></g><rect x="150" y="110" fill="#191970" stroke="#666" width="150" height="50" rx="3" ry="3" class="task task-type-0"/><circle cx="164" cy="110" class="actor-0" fill="#8FBC8F" stroke="#000" r="7"><title>User</title></circle><switch><foreignObject x="150" y="110" width="150" height="50"><div class="task" xmlns="http://www.w3.org/1999/xhtml" style="display: table; height: 100%; width: 100%;"><div class="label" style="display: table-cell; text-align: center; vertical-align: middle;">Land on Home tab</div></div></foreignObject><text x="225" y="135" dominant-baseline="central" alignment-baseline="central" class="task" style="text-anchor: middle; font-size: 14px; font-family: &quot;Open Sans&quot;, sans-serif;"><tspan x="225" dy="0">Land on Home tab</tspan></text></switch></g><g><line id="my-svg-task1" x1="425" y1="110" x2="425" y2="450" class="task-line" stroke-width="1px" stroke-dasharray="4 2" stroke="#666"/><circle cx="425" cy="330" class="face" r="15" stroke-width="2" overflow="visible"/><g><circle cx="420" cy="325" r="1.5" stroke-width="2" fill="#666" stroke="#666"/><circle cx="430" cy="325" r="1.5" stroke-width="2" fill="#666" stroke="#666"/><path class="mouth" d="M7.5,0A7.5,7.5,0,1,1,-7.5,0L-6.818,0A6.818,6.818,0,1,0,6.818,0Z" transform="translate(425,332)"/></g><rect x="350" y="110" fill="#191970" stroke="#666" width="150" height="50" rx="3" ry="3" class="task task-type-0"/><circle cx="364" cy="110" class="actor-0" fill="#8FBC8F" stroke="#000" r="7"><title>User</title></circle><switch><foreignObject x="350" y="110" width="150" height="50"><div class="task" xmlns="http://www.w3.org/1999/xhtml" style="display: table; height: 100%; width: 100%;"><div class="label" style="display: table-cell; text-align: center; vertical-align: middle;">Read project overview &amp; key stats</div></div></foreignObject><text x="425" y="135" dominant-baseline="central" alignment-baseline="central" class="task" style="text-anchor: middle; font-size: 14px; font-family: &quot;Open Sans&quot;, sans-serif;"><tspan x="425" dy="0">Read project overview &amp; key stats</tspan></text></switch></g><g><line id="my-svg-task2" x1="625" y1="110" x2="625" y2="450" class="task-line" stroke-width="1px" stroke-dasharray="4 2" stroke="#666"/><circle cx="625" cy="330" class="face" r="15" stroke-width="2" overflow="visible"/><g><circle cx="620" cy="325" r="1.5" stroke-width="2" fill="#666" stroke="#666"/><circle cx="630" cy="325" r="1.5" stroke-width="2" fill="#666" stroke="#666"/><path class="mouth" d="M7.5,0A7.5,7.5,0,1,1,-7.5,0L-6.818,0A6.818,6.818,0,1,0,6.818,0Z" transform="translate(625,332)"/></g><rect x="550" y="110" fill="#191970" stroke="#666" width="150" height="50" rx="3" ry="3" class="task task-type-0"/><circle cx="564" cy="110" class="actor-0" fill="#8FBC8F" stroke="#000" r="7"><title>User</title></circle><switch><foreignObject x="550" y="110" width="150" height="50"><div class="task" xmlns="http://www.w3.org/1999/xhtml" style="display: table; height: 100%; width: 100%;"><div class="label" style="display: table-cell; text-align: center; vertical-align: middle;">See model summary cards</div></div></foreignObject><text x="625" y="135" dominant-baseline="central" alignment-baseline="central" class="task" style="text-anchor: middle; font-size: 14px; font-family: &quot;Open Sans&quot;, sans-serif;"><tspan x="625" dy="0">See model summary cards</tspan></text></switch></g><g><rect x="750" y="50" fill="#8B008B" stroke="#666" width="1350" height="50" rx="3" ry="3" class="journey-section section-type-1"/><switch><foreignObject x="750" y="50" width="1350" height="50"><div class="journey-section section-type-1" xmlns="http://www.w3.org/1999/xhtml" style="display: table; height: 100%; width: 100%;"><div class="label" style="display: table-cell; text-align: center; vertical-align: middle;">Predict</div></div></foreignObject><text x="1425" y="75" dominant-baseline="central" alignment-baseline="central" class="journey-section section-type-1" style="text-anchor: middle; font-size: 14px; font-family: &quot;Open Sans&quot;, sans-serif;"><tspan x="1425" dy="0">Predict</tspan></text></switch></g><g><line id="my-svg-task3" x1="825" y1="110" x2="825" y2="450" class="task-line" stroke-width="1px" stroke-dasharray="4 2" stroke="#666"/><circle cx="825" cy="300" class="face" r="15" stroke-width="2" overflow="visible"/><g><circle cx="820" cy="295" r="1.5" stroke-width="2" fill="#666" stroke="#666"/><circle cx="830" cy="295" r="1.5" stroke-width="2" fill="#666" stroke="#666"/><path class="mouth" d="M7.5,0A7.5,7.5,0,1,1,-7.5,0L-6.818,0A6.818,6.818,0,1,0,6.818,0Z" transform="translate(825,302)"/></g><rect x="750" y="110" fill="#8B008B" stroke="#666" width="150" height="50" rx="3" ry="3" class="task task-type-1"/><circle cx="764" cy="110" class="actor-0" fill="#8FBC8F" stroke="#000" r="7"><title>User</title></circle><switch><foreignObject x="750" y="110" width="150" height="50"><div class="task" xmlns="http://www.w3.org/1999/xhtml" style="display: table; height: 100%; width: 100%;"><div class="label" style="display: table-cell; text-align: center; vertical-align: middle;">Go to Price &amp; Premium Prediction tab</div></div></foreignObject><text x="825" y="135" dominant-baseline="central" alignment-baseline="central" class="task" style="text-anchor: middle; font-size: 14px; font-family: &quot;Open Sans&quot;, sans-serif;"><tspan x="825" dy="0">Go to Price &amp; Premium Prediction tab</tspan></text></switch></g><g><line id="my-svg-task4" x1="1025" y1="110" x2="1025" y2="450" class="task-line" stroke-width="1px" stroke-dasharray="4 2" stroke="#666"/><circle cx="1025" cy="300" class="face" r="15" stroke-width="2" overflow="visible"/><g><circle cx="1020" cy="295" r="1.5" stroke-width="2" fill="#666" stroke="#666"/><circle cx="1030" cy="295" r="1.5" stroke-width="2" fill="#666" stroke="#666"/><path class="mouth" d="M7.5,0A7.5,7.5,0,1,1,-7.5,0L-6.818,0A6.818,6.818,0,1,0,6.818,0Z" transform="translate(1025,302)"/></g><rect x="950" y="110" fill="#8B008B" stroke="#666" width="150" height="50" rx="3" ry="3" class="task task-type-1"/><circle cx="964" cy="110" class="actor-0" fill="#8FBC8F" stroke="#000" r="7"><title>User</title></circle><switch><foreignObject x="950" y="110" width="150" height="50"><div class="task" xmlns="http://www.w3.org/1999/xhtml" style="display: table; height: 100%; width: 100%;"><div class="label" style="display: table-cell; text-align: center; vertical-align: middle;">Set quality, area, bathrooms, garage</div></div></foreignObject><text x="1025" y="135" dominant-baseline="central" alignment-baseline="central" class="task" style="text-anchor: middle; font-size: 14px; font-family: &quot;Open Sans&quot;, sans-serif;"><tspan x="1025" dy="0">Set quality, area, bathrooms, garage</tspan></text></switch></g><g><line id="my-svg-task5" x1="1225" y1="110" x2="1225" y2="450" class="task-line" stroke-width="1px" stroke-dasharray="4 2" stroke="#666"/><circle cx="1225" cy="300" class="face" r="15" stroke-width="2" overflow="visible"/><g><circle cx="1220" cy="295" r="1.5" stroke-width="2" fill="#666" stroke="#666"/><circle cx="1230" cy="295" r="1.5" stroke-width="2" fill="#666" stroke="#666"/><path class="mouth" d="M7.5,0A7.5,7.5,0,1,1,-7.5,0L-6.818,0A6.818,6.818,0,1,0,6.818,0Z" transform="translate(1225,302)"/></g><rect x="1150" y="110" fill="#8B008B" stroke="#666" width="150" height="50" rx="3" ry="3" class="task task-type-1"/><circle cx="1164" cy="110" class="actor-0" fill="#8FBC8F" stroke="#000" r="7"><title>User</title></circle><switch><foreignObject x="1150" y="110" width="150" height="50"><div class="task" xmlns="http://www.w3.org/1999/xhtml" style="display: table; height: 100%; width: 100%;"><div class="label" style="display: table-cell; text-align: center; vertical-align: middle;">Pick year built &amp; neighbourhood</div></div></foreignObject><text x="1225" y="135" dominant-baseline="central" alignment-baseline="central" class="task" style="text-anchor: middle; font-size: 14px; font-family: &quot;Open Sans&quot;, sans-serif;"><tspan x="1225" dy="0">Pick year built &amp; neighbourhood</tspan></text></switch></g><g><line id="my-svg-task6" x1="1425" y1="110" x2="1425" y2="450" class="task-line" stroke-width="1px" stroke-dasharray="4 2" stroke="#666"/><circle cx="1425" cy="300" class="face" r="15" stroke-width="2" overflow="visible"/><g><circle cx="1420" cy="295" r="1.5" stroke-width="2" fill="#666" stroke="#666"/><circle cx="1430" cy="295" r="1.5" stroke-width="2" fill="#666" stroke="#666"/><path class="mouth" d="M7.5,0A7.5,7.5,0,1,1,-7.5,0L-6.818,0A6.818,6.818,0,1,0,6.818,0Z" transform="translate(1425,302)"/></g><rect x="1350" y="110" fill="#8B008B" stroke="#666" width="150" height="50" rx="3" ry="3" class="task task-type-1"/><circle cx="1364" cy="110" class="actor-0" fill="#8FBC8F" stroke="#000" r="7"><title>User</title></circle><switch><foreignObject x="1350" y="110" width="150" height="50"><div class="task" xmlns="http://www.w3.org/1999/xhtml" style="display: table; height: 100%; width: 100%;"><div class="label" style="display: table-cell; text-align: center; vertical-align: middle;">Click Predict button</div></div></foreignObject><text x="1425" y="135" dominant-baseline="central" alignment-baseline="central" class="task" style="text-anchor: middle; font-size: 14px; font-family: &quot;Open Sans&quot;, sans-serif;"><tspan x="1425" dy="0">Click Predict button</tspan></text></switch></g><g><line id="my-svg-task7" x1="1625" y1="110" x2="1625" y2="450" class="task-line" stroke-width="1px" stroke-dasharray="4 2" stroke="#666"/><circle cx="1625" cy="300" class="face" r="15" stroke-width="2" overflow="visible"/><g><circle cx="1620" cy="295" r="1.5" stroke-width="2" fill="#666" stroke="#666"/><circle cx="1630" cy="295" r="1.5" stroke-width="2" fill="#666" stroke="#666"/><path class="mouth" d="M7.5,0A7.5,7.5,0,1,1,-7.5,0L-6.818,0A6.818,6.818,0,1,0,6.818,0Z" transform="translate(1625,302)"/></g><rect x="1550" y="110" fill="#8B008B" stroke="#666" width="150" height="50" rx="3" ry="3" class="task task-type-1"/><circle cx="1564" cy="110" class="actor-0" fill="#8FBC8F" stroke="#000" r="7"><title>User</title></circle><switch><foreignObject x="1550" y="110" width="150" height="50"><div class="task" xmlns="http://www.w3.org/1999/xhtml" style="display: table; height: 100%; width: 100%;"><div class="label" style="display: table-cell; text-align: center; vertical-align: middle;">View estimated sale price</div></div></foreignObject><text x="1625" y="135" dominant-baseline="central" alignment-baseline="central" class="task" style="text-anchor: middle; font-size: 14px; font-family: &quot;Open Sans&quot;, sans-serif;"><tspan x="1625" dy="0">View estimated sale price</tspan></text></switch></g><g><line id="my-svg-task8" x1="1825" y1="110" x2="1825" y2="450" class="task-line" stroke-width="1px" stroke-dasharray="4 2" stroke="#666"/><circle cx="1825" cy="300" class="face" r="15" stroke-width="2" overflow="visible"/><g><circle cx="1820" cy="295" r="1.5" stroke-width="2" fill="#666" stroke="#666"/><circle cx="1830" cy="295" r="1.5" stroke-width="2" fill="#666" stroke="#666"/><path class="mouth" d="M7.5,0A7.5,7.5,0,1,1,-7.5,0L-6.818,0A6.818,6.818,0,1,0,6.818,0Z" transform="translate(1825,302)"/></g><rect x="1750" y="110" fill="#8B008B" stroke="#666" width="150" height="50" rx="3" ry="3" class="task task-type-1"/><circle cx="1764" cy="110" class="actor-0" fill="#8FBC8F" stroke="#000" r="7"><title>User</title></circle><switch><foreignObject x="1750" y="110" width="150" height="50"><div class="task" xmlns="http://www.w3.org/1999/xhtml" style="display: table; height: 100%; width: 100%;"><div class="label" style="display: table-cell; text-align: center; vertical-align: middle;">View Premium Home verdict</div></div></foreignObject><text x="1825" y="135" dominant-baseline="central" alignment-baseline="central" class="task" style="text-anchor: middle; font-size: 14px; font-family: &quot;Open Sans&quot;, sans-serif;"><tspan x="1825" dy="0">View Premium Home verdict</tspan></text></switch></g><g><line id="my-svg-task9" x1="2025" y1="110" x2="2025" y2="450" class="task-line" stroke-width="1px" stroke-dasharray="4 2" stroke="#666"/><circle cx="2025" cy="330" class="face" r="15" stroke-width="2" overflow="visible"/><g><circle cx="2020" cy="325" r="1.5" stroke-width="2" fill="#666" stroke="#666"/><circle cx="2030" cy="325" r="1.5" stroke-width="2" fill="#666" stroke="#666"/><path class="mouth" d="M7.5,0A7.5,7.5,0,1,1,-7.5,0L-6.818,0A6.818,6.818,0,1,0,6.818,0Z" transform="translate(2025,332)"/></g><rect x="1950" y="110" fill="#8B008B" stroke="#666" width="150" height="50" rx="3" ry="3" class="task task-type-1"/><circle cx="1964" cy="110" class="actor-0" fill="#8FBC8F" stroke="#000" r="7"><title>User</title></circle><switch><foreignObject x="1950" y="110" width="150" height="50"><div class="task" xmlns="http://www.w3.org/1999/xhtml" style="display: table; height: 100%; width: 100%;"><div class="label" style="display: table-cell; text-align: center; vertical-align: middle;">Read Investment Insights</div></div></foreignObject><text x="2025" y="135" dominant-baseline="central" alignment-baseline="central" class="task" style="text-anchor: middle; font-size: 14px; font-family: &quot;Open Sans&quot;, sans-serif;"><tspan x="2025" dy="0">Read Investment Insights</tspan></text></switch></g><g><rect x="2150" y="50" fill="#4B0082" stroke="#666" width="750" height="50" rx="3" ry="3" class="journey-section section-type-2"/><switch><foreignObject x="2150" y="50" width="750" height="50"><div class="journey-section section-type-2" xmlns="http://www.w3.org/1999/xhtml" style="display: table; height: 100%; width: 100%;"><div class="label" style="display: table-cell; text-align: center; vertical-align: middle;">Explore</div></div></foreignObject><text x="2525" y="75" dominant-baseline="central" alignment-baseline="central" class="journey-section section-type-2" style="text-anchor: middle; font-size: 14px; font-family: &quot;Open Sans&quot;, sans-serif;"><tspan x="2525" dy="0">Explore</tspan></text></switch></g><g><line id="my-svg-task10" x1="2225" y1="110" x2="2225" y2="450" class="task-line" stroke-width="1px" stroke-dasharray="4 2" stroke="#666"/><circle cx="2225" cy="300" class="face" r="15" stroke-width="2" overflow="visible"/><g><circle cx="2220" cy="295" r="1.5" stroke-width="2" fill="#666" stroke="#666"/><circle cx="2230" cy="295" r="1.5" stroke-width="2" fill="#666" stroke="#666"/><path class="mouth" d="M7.5,0A7.5,7.5,0,1,1,-7.5,0L-6.818,0A6.818,6.818,0,1,0,6.818,0Z" transform="translate(2225,302)"/></g><rect x="2150" y="110" fill="#4B0082" stroke="#666" width="150" height="50" rx="3" ry="3" class="task task-type-2"/><circle cx="2164" cy="110" class="actor-0" fill="#8FBC8F" stroke="#000" r="7"><title>User</title></circle><switch><foreignObject x="2150" y="110" width="150" height="50"><div class="task" xmlns="http://www.w3.org/1999/xhtml" style="display: table; height: 100%; width: 100%;"><div class="label" style="display: table-cell; text-align: center; vertical-align: middle;">Go to Ames's Neighborhoods tab</div></div></foreignObject><text x="2225" y="135" dominant-baseline="central" alignment-baseline="central" class="task" style="text-anchor: middle; font-size: 14px; font-family: &quot;Open Sans&quot;, sans-serif;"><tspan x="2225" dy="0">Go to Ames's Neighborhoods tab</tspan></text></switch></g><g><line id="my-svg-task11" x1="2425" y1="110" x2="2425" y2="450" class="task-line" stroke-width="1px" stroke-dasharray="4 2" stroke="#666"/><circle cx="2425" cy="300" class="face" r="15" stroke-width="2" overflow="visible"/><g><circle cx="2420" cy="295" r="1.5" stroke-width="2" fill="#666" stroke="#666"/><circle cx="2430" cy="295" r="1.5" stroke-width="2" fill="#666" stroke="#666"/><path class="mouth" d="M7.5,0A7.5,7.5,0,1,1,-7.5,0L-6.818,0A6.818,6.818,0,1,0,6.818,0Z" transform="translate(2425,302)"/></g><rect x="2350" y="110" fill="#4B0082" stroke="#666" width="150" height="50" rx="3" ry="3" class="task task-type-2"/><circle cx="2364" cy="110" class="actor-0" fill="#8FBC8F" stroke="#000" r="7"><title>User</title></circle><switch><foreignObject x="2350" y="110" width="150" height="50"><div class="task" xmlns="http://www.w3.org/1999/xhtml" style="display: table; height: 100%; width: 100%;"><div class="label" style="display: table-cell; text-align: center; vertical-align: middle;">Browse interactive map</div></div></foreignObject><text x="2425" y="135" dominant-baseline="central" alignment-baseline="central" class="task" style="text-anchor: middle; font-size: 14px; font-family: &quot;Open Sans&quot;, sans-serif;"><tspan x="2425" dy="0">Browse interactive map</tspan></text></switch></g><g><line id="my-svg-task12" x1="2625" y1="110" x2="2625" y2="450" class="task-line" stroke-width="1px" stroke-dasharray="4 2" stroke="#666"/><circle cx="2625" cy="330" class="face" r="15" stroke-width="2" overflow="visible"/><g><circle cx="2620" cy="325" r="1.5" stroke-width="2" fill="#666" stroke="#666"/><circle cx="2630" cy="325" r="1.5" stroke-width="2" fill="#666" stroke="#666"/><path class="mouth" d="M7.5,0A7.5,7.5,0,1,1,-7.5,0L-6.818,0A6.818,6.818,0,1,0,6.818,0Z" transform="translate(2625,332)"/></g><rect x="2550" y="110" fill="#4B0082" stroke="#666" width="150" height="50" rx="3" ry="3" class="task task-type-2"/><circle cx="2564" cy="110" class="actor-0" fill="#8FBC8F" stroke="#000" r="7"><title>User</title></circle><switch><foreignObject x="2550" y="110" width="150" height="50"><div class="task" xmlns="http://www.w3.org/1999/xhtml" style="display: table; height: 100%; width: 100%;"><div class="label" style="display: table-cell; text-align: center; vertical-align: middle;">Read premium photo cards</div></div></foreignObject><text x="2625" y="135" dominant-baseline="central" alignment-baseline="central" class="task" style="text-anchor: middle; font-size: 14px; font-family: &quot;Open Sans&quot;, sans-serif;"><tspan x="2625" dy="0">Read premium photo cards</tspan></text></switch></g><g><line id="my-svg-task13" x1="2825" y1="110" x2="2825" y2="450" class="task-line" stroke-width="1px" stroke-dasharray="4 2" stroke="#666"/><circle cx="2825" cy="330" class="face" r="15" stroke-width="2" overflow="visible"/><g><circle cx="2820" cy="325" r="1.5" stroke-width="2" fill="#666" stroke="#666"/><circle cx="2830" cy="325" r="1.5" stroke-width="2" fill="#666" stroke="#666"/><path class="mouth" d="M7.5,0A7.5,7.5,0,1,1,-7.5,0L-6.818,0A6.818,6.818,0,1,0,6.818,0Z" transform="translate(2825,332)"/></g><rect x="2750" y="110" fill="#4B0082" stroke="#666" width="150" height="50" rx="3" ry="3" class="task task-type-2"/><circle cx="2764" cy="110" class="actor-0" fill="#8FBC8F" stroke="#000" r="7"><title>User</title></circle><switch><foreignObject x="2750" y="110" width="150" height="50"><div class="task" xmlns="http://www.w3.org/1999/xhtml" style="display: table; height: 100%; width: 100%;"><div class="label" style="display: table-cell; text-align: center; vertical-align: middle;">Compare budget &amp; mid-range districts</div></div></foreignObject><text x="2825" y="135" dominant-baseline="central" alignment-baseline="central" class="task" style="text-anchor: middle; font-size: 14px; font-family: &quot;Open Sans&quot;, sans-serif;"><tspan x="2825" dy="0">Compare budget &amp; mid-range districts</tspan></text></switch></g><g><rect x="2950" y="50" fill="#2F4F4F" stroke="#666" width="950" height="50" rx="3" ry="3" class="journey-section section-type-3"/><switch><foreignObject x="2950" y="50" width="950" height="50"><div class="journey-section section-type-3" xmlns="http://www.w3.org/1999/xhtml" style="display: table; height: 100%; width: 100%;"><div class="label" style="display: table-cell; text-align: center; vertical-align: middle;">Match</div></div></foreignObject><text x="3425" y="75" dominant-baseline="central" alignment-baseline="central" class="journey-section section-type-3" style="text-anchor: middle; font-size: 14px; font-family: &quot;Open Sans&quot;, sans-serif;"><tspan x="3425" dy="0">Match</tspan></text></switch></g><g><line id="my-svg-task14" x1="3025" y1="110" x2="3025" y2="450" class="task-line" stroke-width="1px" stroke-dasharray="4 2" stroke="#666"/><circle cx="3025" cy="300" class="face" r="15" stroke-width="2" overflow="visible"/><g><circle cx="3020" cy="295" r="1.5" stroke-width="2" fill="#666" stroke="#666"/><circle cx="3030" cy="295" r="1.5" stroke-width="2" fill="#666" stroke="#666"/><path class="mouth" d="M7.5,0A7.5,7.5,0,1,1,-7.5,0L-6.818,0A6.818,6.818,0,1,0,6.818,0Z" transform="translate(3025,302)"/></g><rect x="2950" y="110" fill="#2F4F4F" stroke="#666" width="150" height="50" rx="3" ry="3" class="task task-type-3"/><circle cx="2964" cy="110" class="actor-0" fill="#8FBC8F" stroke="#000" r="7"><title>User</title></circle><switch><foreignObject x="2950" y="110" width="150" height="50"><div class="task" xmlns="http://www.w3.org/1999/xhtml" style="display: table; height: 100%; width: 100%;"><div class="label" style="display: table-cell; text-align: center; vertical-align: middle;">Go to Ideal Buyer Match tab</div></div></foreignObject><text x="3025" y="135" dominant-baseline="central" alignment-baseline="central" class="task" style="text-anchor: middle; font-size: 14px; font-family: &quot;Open Sans&quot;, sans-serif;"><tspan x="3025" dy="0">Go to Ideal Buyer Match tab</tspan></text></switch></g><g><line id="my-svg-task15" x1="3225" y1="110" x2="3225" y2="450" class="task-line" stroke-width="1px" stroke-dasharray="4 2" stroke="#666"/><circle cx="3225" cy="300" class="face" r="15" stroke-width="2" overflow="visible"/><g><circle cx="3220" cy="295" r="1.5" stroke-width="2" fill="#666" stroke="#666"/><circle cx="3230" cy="295" r="1.5" stroke-width="2" fill="#666" stroke="#666"/><path class="mouth" d="M7.5,0A7.5,7.5,0,1,1,-7.5,0L-6.818,0A6.818,6.818,0,1,0,6.818,0Z" transform="translate(3225,302)"/></g><rect x="3150" y="110" fill="#2F4F4F" stroke="#666" width="150" height="50" rx="3" ry="3" class="task task-type-3"/><circle cx="3164" cy="110" class="actor-0" fill="#8FBC8F" stroke="#000" r="7"><title>User</title></circle><switch><foreignObject x="3150" y="110" width="150" height="50"><div class="task" xmlns="http://www.w3.org/1999/xhtml" style="display: table; height: 100%; width: 100%;"><div class="label" style="display: table-cell; text-align: center; vertical-align: middle;">Select buyer persona</div></div></foreignObject><text x="3225" y="135" dominant-baseline="central" alignment-baseline="central" class="task" style="text-anchor: middle; font-size: 14px; font-family: &quot;Open Sans&quot;, sans-serif;"><tspan x="3225" dy="0">Select buyer persona</tspan></text></switch></g><g><line id="my-svg-task16" x1="3425" y1="110" x2="3425" y2="450" class="task-line" stroke-width="1px" stroke-dasharray="4 2" stroke="#666"/><circle cx="3425" cy="300" class="face" r="15" stroke-width="2" overflow="visible"/><g><circle cx="3420" cy="295" r="1.5" stroke-width="2" fill="#666" stroke="#666"/><circle cx="3430" cy="295" r="1.5" stroke-width="2" fill="#666" stroke="#666"/><path class="mouth" d="M7.5,0A7.5,7.5,0,1,1,-7.5,0L-6.818,0A6.818,6.818,0,1,0,6.818,0Z" transform="translate(3425,302)"/></g><rect x="3350" y="110" fill="#2F4F4F" stroke="#666" width="150" height="50" rx="3" ry="3" class="task task-type-3"/><circle cx="3364" cy="110" class="actor-0" fill="#8FBC8F" stroke="#000" r="7"><title>User</title></circle><switch><foreignObject x="3350" y="110" width="150" height="50"><div class="task" xmlns="http://www.w3.org/1999/xhtml" style="display: table; height: 100%; width: 100%;"><div class="label" style="display: table-cell; text-align: center; vertical-align: middle;">Set lifestyle preferences</div></div></foreignObject><text x="3425" y="135" dominant-baseline="central" alignment-baseline="central" class="task" style="text-anchor: middle; font-size: 14px; font-family: &quot;Open Sans&quot;, sans-serif;"><tspan x="3425" dy="0">Set lifestyle preferences</tspan></text></switch></g><g><line id="my-svg-task17" x1="3625" y1="110" x2="3625" y2="450" class="task-line" stroke-width="1px" stroke-dasharray="4 2" stroke="#666"/><circle cx="3625" cy="300" class="face" r="15" stroke-width="2" overflow="visible"/><g><circle cx="3620" cy="295" r="1.5" stroke-width="2" fill="#666" stroke="#666"/><circle cx="3630" cy="295" r="1.5" stroke-width="2" fill="#666" stroke="#666"/><path class="mouth" d="M7.5,0A7.5,7.5,0,1,1,-7.5,0L-6.818,0A6.818,6.818,0,1,0,6.818,0Z" transform="translate(3625,302)"/></g><rect x="3550" y="110" fill="#2F4F4F" stroke="#666" width="150" height="50" rx="3" ry="3" class="task task-type-3"/><circle cx="3564" cy="110" class="actor-0" fill="#8FBC8F" stroke="#000" r="7"><title>User</title></circle><switch><foreignObject x="3550" y="110" width="150" height="50"><div class="task" xmlns="http://www.w3.org/1999/xhtml" style="display: table; height: 100%; width: 100%;"><div class="label" style="display: table-cell; text-align: center; vertical-align: middle;">View top neighbourhood matches</div></div></foreignObject><text x="3625" y="135" dominant-baseline="central" alignment-baseline="central" class="task" style="text-anchor: middle; font-size: 14px; font-family: &quot;Open Sans&quot;, sans-serif;"><tspan x="3625" dy="0">View top neighbourhood matches</tspan></text></switch></g><g><line id="my-svg-task18" x1="3825" y1="110" x2="3825" y2="450" class="task-line" stroke-width="1px" stroke-dasharray="4 2" stroke="#666"/><circle cx="3825" cy="330" class="face" r="15" stroke-width="2" overflow="visible"/><g><circle cx="3820" cy="325" r="1.5" stroke-width="2" fill="#666" stroke="#666"/><circle cx="3830" cy="325" r="1.5" stroke-width="2" fill="#666" stroke="#666"/><path class="mouth" d="M7.5,0A7.5,7.5,0,1,1,-7.5,0L-6.818,0A6.818,6.818,0,1,0,6.818,0Z" transform="translate(3825,332)"/></g><rect x="3750" y="110" fill="#2F4F4F" stroke="#666" width="150" height="50" rx="3" ry="3" class="task task-type-3"/><circle cx="3764" cy="110" class="actor-0" fill="#8FBC8F" stroke="#000" r="7"><title>User</title></circle><switch><foreignObject x="3750" y="110" width="150" height="50"><div class="task" xmlns="http://www.w3.org/1999/xhtml" style="display: table; height: 100%; width: 100%;"><div class="label" style="display: table-cell; text-align: center; vertical-align: middle;">Review Top 5 comparison table</div></div></foreignObject><text x="3825" y="135" dominant-baseline="central" alignment-baseline="central" class="task" style="text-anchor: middle; font-size: 14px; font-family: &quot;Open Sans&quot;, sans-serif;"><tspan x="3825" dy="0">Review Top 5 comparison table</tspan></text></switch></g><g><rect x="3950" y="50" fill="#800000" stroke="#666" width="550" height="50" rx="3" ry="3" class="journey-section section-type-4"/><switch><foreignObject x="3950" y="50" width="550" height="50"><div class="journey-section section-type-4" xmlns="http://www.w3.org/1999/xhtml" style="display: table; height: 100%; width: 100%;"><div class="label" style="display: table-cell; text-align: center; vertical-align: middle;">Insights</div></div></foreignObject><text x="4225" y="75" dominant-baseline="central" alignment-baseline="central" class="journey-section section-type-4" style="text-anchor: middle; font-size: 14px; font-family: &quot;Open Sans&quot;, sans-serif;"><tspan x="4225" dy="0">Insights</tspan></text></switch></g><g><line id="my-svg-task19" x1="4025" y1="110" x2="4025" y2="450" class="task-line" stroke-width="1px" stroke-dasharray="4 2" stroke="#666"/><circle cx="4025" cy="330" class="face" r="15" stroke-width="2" overflow="visible"/><g><circle cx="4020" cy="325" r="1.5" stroke-width="2" fill="#666" stroke="#666"/><circle cx="4030" cy="325" r="1.5" stroke-width="2" fill="#666" stroke="#666"/><path class="mouth" d="M7.5,0A7.5,7.5,0,1,1,-7.5,0L-6.818,0A6.818,6.818,0,1,0,6.818,0Z" transform="translate(4025,332)"/></g><rect x="3950" y="110" fill="#800000" stroke="#666" width="150" height="50" rx="3" ry="3" class="task task-type-4"/><circle cx="3964" cy="110" class="actor-0" fill="#8FBC8F" stroke="#000" r="7"><title>User</title></circle><switch><foreignObject x="3950" y="110" width="150" height="50"><div class="task" xmlns="http://www.w3.org/1999/xhtml" style="display: table; height: 100%; width: 100%;"><div class="label" style="display: table-cell; text-align: center; vertical-align: middle;">Go to Market Housing Insights tab</div></div></foreignObject><text x="4025" y="135" dominant-baseline="central" alignment-baseline="central" class="task" style="text-anchor: middle; font-size: 14px; font-family: &quot;Open Sans&quot;, sans-serif;"><tspan x="4025" dy="0">Go to Market Housing Insights tab</tspan></text></switch></g><g><line id="my-svg-task20" x1="4225" y1="110" x2="4225" y2="450" class="task-line" stroke-width="1px" stroke-dasharray="4 2" stroke="#666"/><circle cx="4225" cy="330" class="face" r="15" stroke-width="2" overflow="visible"/><g><circle cx="4220" cy="325" r="1.5" stroke-width="2" fill="#666" stroke="#666"/><circle cx="4230" cy="325" r="1.5" stroke-width="2" fill="#666" stroke="#666"/><path class="mouth" d="M7.5,0A7.5,7.5,0,1,1,-7.5,0L-6.818,0A6.818,6.818,0,1,0,6.818,0Z" transform="translate(4225,332)"/></g><rect x="4150" y="110" fill="#800000" stroke="#666" width="150" height="50" rx="3" ry="3" class="task task-type-4"/><circle cx="4164" cy="110" class="actor-0" fill="#8FBC8F" stroke="#000" r="7"><title>User</title></circle><switch><foreignObject x="4150" y="110" width="150" height="50"><div class="task" xmlns="http://www.w3.org/1999/xhtml" style="display: table; height: 100%; width: 100%;"><div class="label" style="display: table-cell; text-align: center; vertical-align: middle;">Explore EDA charts &amp; distributions</div></div></foreignObject><text x="4225" y="135" dominant-baseline="central" alignment-baseline="central" class="task" style="text-anchor: middle; font-size: 14px; font-family: &quot;Open Sans&quot;, sans-serif;"><tspan x="4225" dy="0">Explore EDA charts &amp; distributions</tspan></text></switch></g><g><line id="my-svg-task21" x1="4425" y1="110" x2="4425" y2="450" class="task-line" stroke-width="1px" stroke-dasharray="4 2" stroke="#666"/><circle cx="4425" cy="330" class="face" r="15" stroke-width="2" overflow="visible"/><g><circle cx="4420" cy="325" r="1.5" stroke-width="2" fill="#666" stroke="#666"/><circle cx="4430" cy="325" r="1.5" stroke-width="2" fill="#666" stroke="#666"/><path class="mouth" d="M7.5,0A7.5,7.5,0,1,1,-7.5,0L-6.818,0A6.818,6.818,0,1,0,6.818,0Z" transform="translate(4425,332)"/></g><rect x="4350" y="110" fill="#800000" stroke="#666" width="150" height="50" rx="3" ry="3" class="task task-type-4"/><circle cx="4364" cy="110" class="actor-0" fill="#8FBC8F" stroke="#000" r="7"><title>User</title></circle><switch><foreignObject x="4350" y="110" width="150" height="50"><div class="task" xmlns="http://www.w3.org/1999/xhtml" style="display: table; height: 100%; width: 100%;"><div class="label" style="display: table-cell; text-align: center; vertical-align: middle;">Compare neighbourhoods by price</div></div></foreignObject><text x="4425" y="135" dominant-baseline="central" alignment-baseline="central" class="task" style="text-anchor: middle; font-size: 14px; font-family: &quot;Open Sans&quot;, sans-serif;"><tspan x="4425" dy="0">Compare neighbourhoods by price</tspan></text></switch></g><text x="150" font-size="4ex" font-weight="bold" y="25" fill="" font-family="&quot;trebuchet ms&quot;, verdana, arial, sans-serif">User Journey — Ames Housing ML App</text><line x1="150" y1="200" x2="4546" y2="200" stroke-width="4" stroke="black" marker-end="url(#my-svg-arrowhead)"/></svg>